<svg width="1120" height="579" viewBox="0 0 1120 579" fill="none" xmlns="http://www.w3.org/2000/svg">
<g clip-path="url(#clip0_17_111)">
<rect width="1120" height="579" fill="#0A1B6F"/>
<path d="M329.243 506V493.25H368.843V506H329.243Z" fill="white"/>
<path d="M412.941 544.1C406.541 544.1 400.991 542.95 396.291 540.65C391.691 538.25 387.791 535.45 384.591 532.25L394.041 521.45C396.241 523.95 398.941 525.95 402.141 527.45C405.341 528.95 408.641 529.7 412.041 529.7C415.541 529.7 418.841 528.9 421.941 527.3C425.141 525.7 427.891 523.1 430.191 519.5C432.591 515.9 434.441 511.1 435.741 505.1C437.141 499.1 437.841 491.75 437.841 483.05C437.841 473.85 436.941 466.3 435.141 460.4C433.341 454.4 430.791 450 427.491 447.2C424.291 444.3 420.441 442.85 415.941 442.85C412.741 442.85 409.841 443.8 407.241 445.7C404.641 447.5 402.591 450.1 401.091 453.5C399.591 456.9 398.841 461 398.841 465.8C398.841 470.5 399.491 474.5 400.791 477.8C402.191 481.1 404.241 483.65 406.941 485.45C409.641 487.15 412.891 488 416.691 488C420.191 488 423.791 486.9 427.491 484.7C431.191 482.5 434.691 478.9 437.991 473.9L438.741 486.65C436.641 489.45 434.191 491.9 431.391 494C428.591 496.1 425.691 497.75 422.691 498.95C419.691 500.05 416.691 500.6 413.691 500.6C407.591 500.6 402.191 499.3 397.491 496.7C392.891 494.1 389.241 490.25 386.541 485.15C383.941 479.95 382.641 473.5 382.641 465.8C382.641 458.5 384.141 452.15 387.141 446.75C390.241 441.25 394.291 437 399.291 434C404.291 431 409.741 429.5 415.641 429.5C420.941 429.5 425.891 430.6 430.491 432.8C435.191 434.9 439.241 438.15 442.641 442.55C446.141 446.95 448.891 452.5 450.891 459.2C452.891 465.9 453.891 473.85 453.891 483.05C453.891 493.85 452.791 503.15 450.591 510.95C448.391 518.65 445.341 524.95 441.441 529.85C437.541 534.65 433.141 538.25 428.241 540.65C423.341 542.95 418.241 544.1 412.941 544.1ZM469.238 544.1C466.038 544.1 463.288 542.95 460.988 540.65C458.788 538.25 457.688 535.3 457.688 531.8C457.688 528.2 458.788 525.3 460.988 523.1C463.288 520.8 466.038 519.65 469.238 519.65C472.538 519.65 475.288 520.8 477.488 523.1C479.788 525.3 480.938 528.2 480.938 531.8C480.938 535.3 479.788 538.25 477.488 540.65C475.288 542.95 472.538 544.1 469.238 544.1ZM489.315 542V527.75H513.615V450.95H493.815V440C499.015 439.1 503.515 437.95 507.315 436.55C511.215 435.15 514.765 433.45 517.965 431.45H531.015V527.75H552.465V542H489.315Z" fill="white"/>
<path d="M602.312 544.1C596.512 544.1 591.362 543.4 586.862 542C582.462 540.6 578.562 538.75 575.162 536.45C571.762 534.05 568.812 531.5 566.312 528.8L574.712 517.7C578.012 520.9 581.762 523.7 585.962 526.1C590.162 528.5 595.112 529.7 600.812 529.7C605.012 529.7 608.662 529 611.762 527.6C614.862 526.1 617.262 524 618.962 521.3C620.762 518.6 621.662 515.3 621.662 511.4C621.662 507.4 620.662 503.9 618.662 500.9C616.762 497.8 613.412 495.45 608.612 493.85C603.912 492.15 597.412 491.3 589.112 491.3V478.4C596.412 478.4 602.112 477.6 606.212 476C610.412 474.3 613.412 472 615.212 469.1C617.112 466.2 618.062 462.9 618.062 459.2C618.062 454.4 616.562 450.6 613.562 447.8C610.562 444.9 606.412 443.45 601.112 443.45C596.912 443.45 592.962 444.4 589.262 446.3C585.662 448.1 582.262 450.55 579.062 453.65L570.062 442.85C574.462 438.85 579.262 435.65 584.462 433.25C589.662 430.75 595.412 429.5 601.712 429.5C608.312 429.5 614.162 430.65 619.262 432.95C624.362 435.15 628.362 438.35 631.262 442.55C634.162 446.75 635.612 451.9 635.612 458C635.612 464.3 633.862 469.65 630.362 474.05C626.962 478.45 622.362 481.75 616.562 483.95V484.55C620.762 485.65 624.562 487.45 627.962 489.95C631.462 492.35 634.212 495.45 636.212 499.25C638.212 503.05 639.212 507.4 639.212 512.3C639.212 518.9 637.512 524.6 634.112 529.4C630.812 534.1 626.362 537.75 620.762 540.35C615.162 542.85 609.012 544.1 602.312 544.1Z" fill="#00AABE"/>
<path d="M86.9408 544.1C80.5408 544.1 74.9908 542.95 70.2908 540.65C65.6908 538.25 61.7908 535.45 58.5908 532.25L68.0408 521.45C70.2408 523.95 72.9408 525.95 76.1408 527.45C79.3408 528.95 82.6408 529.7 86.0408 529.7C89.5408 529.7 92.8408 528.9 95.9408 527.3C99.1408 525.7 101.891 523.1 104.191 519.5C106.591 515.9 108.441 511.1 109.741 505.1C111.141 499.1 111.841 491.75 111.841 483.05C111.841 473.85 110.941 466.3 109.141 460.4C107.341 454.4 104.791 450 101.491 447.2C98.2908 444.3 94.4408 442.85 89.9408 442.85C86.7408 442.85 83.8408 443.8 81.2408 445.7C78.6408 447.5 76.5908 450.1 75.0908 453.5C73.5908 456.9 72.8408 461 72.8408 465.8C72.8408 470.5 73.4908 474.5 74.7908 477.8C76.1908 481.1 78.2408 483.65 80.9408 485.45C83.6408 487.15 86.8908 488 90.6908 488C94.1908 488 97.7908 486.9 101.491 484.7C105.191 482.5 108.691 478.9 111.991 473.9L112.741 486.65C110.641 489.45 108.191 491.9 105.391 494C102.591 496.1 99.6908 497.75 96.6908 498.95C93.6908 500.05 90.6908 500.6 87.6908 500.6C81.5908 500.6 76.1908 499.3 71.4908 496.7C66.8908 494.1 63.2408 490.25 60.5408 485.15C57.9408 479.95 56.6408 473.5 56.6408 465.8C56.6408 458.5 58.1408 452.15 61.1408 446.75C64.2408 441.25 68.2908 437 73.2908 434C78.2908 431 83.7408 429.5 89.6408 429.5C94.9408 429.5 99.8908 430.6 104.491 432.8C109.191 434.9 113.241 438.15 116.641 442.55C120.141 446.95 122.891 452.5 124.891 459.2C126.891 465.9 127.891 473.85 127.891 483.05C127.891 493.85 126.791 503.15 124.591 510.95C122.391 518.65 119.341 524.95 115.441 529.85C111.541 534.65 107.141 538.25 102.241 540.65C97.3408 542.95 92.2408 544.1 86.9408 544.1ZM143.238 544.1C140.038 544.1 137.288 542.95 134.988 540.65C132.788 538.25 131.688 535.3 131.688 531.8C131.688 528.2 132.788 525.3 134.988 523.1C137.288 520.8 140.038 519.65 143.238 519.65C146.538 519.65 149.288 520.8 151.488 523.1C153.788 525.3 154.938 528.2 154.938 531.8C154.938 535.3 153.788 538.25 151.488 540.65C149.288 542.95 146.538 544.1 143.238 544.1ZM163.315 542V527.75H187.615V450.95H167.815V440C173.015 439.1 177.515 437.95 181.315 436.55C185.215 435.15 188.765 433.45 191.965 431.45H205.015V527.75H226.465V542H163.315Z" fill="white"/>
<path d="M242.712 542V531.95C253.612 522.25 262.712 513.4 270.012 505.4C277.312 497.3 282.762 489.8 286.362 482.9C290.062 476 291.912 469.55 291.912 463.55C291.912 459.55 291.212 456.05 289.812 453.05C288.512 449.95 286.462 447.6 283.662 446C280.962 444.3 277.512 443.45 273.312 443.45C269.012 443.45 265.062 444.65 261.462 447.05C257.862 449.35 254.562 452.2 251.562 455.6L241.812 446C246.512 440.8 251.462 436.75 256.662 433.85C261.962 430.95 268.262 429.5 275.562 429.5C282.262 429.5 288.112 430.9 293.112 433.7C298.112 436.4 301.962 440.25 304.662 445.25C307.462 450.15 308.862 455.95 308.862 462.65C308.862 469.75 307.112 476.95 303.612 484.25C300.112 491.45 295.312 498.75 289.212 506.15C283.112 513.45 276.162 520.85 268.362 528.35C271.262 528.05 274.312 527.8 277.512 527.6C280.812 527.3 283.762 527.15 286.362 527.15H314.112V542H242.712Z" fill="#DB5492"/>
<path d="M251.744 417.672C249.312 417.672 247.008 417.208 244.832 416.28C242.688 415.352 240.8 414.072 239.168 412.44L242.432 408.6C243.712 409.848 245.168 410.856 246.8 411.624C248.464 412.392 250.16 412.776 251.888 412.776C254 412.776 255.616 412.312 256.736 411.384C257.888 410.456 258.464 409.256 258.464 407.784C258.464 406.696 258.224 405.832 257.744 405.192C257.264 404.52 256.592 403.96 255.728 403.512C254.896 403.064 253.936 402.6 252.848 402.12L247.952 400.008C246.8 399.528 245.664 398.904 244.544 398.136C243.456 397.336 242.544 396.344 241.808 395.16C241.104 393.944 240.752 392.472 240.752 390.744C240.752 388.888 241.248 387.224 242.24 385.752C243.232 384.28 244.608 383.128 246.368 382.296C248.128 381.432 250.128 381 252.368 381C254.448 381 256.416 381.4 258.272 382.2C260.128 383 261.712 384.088 263.024 385.464L260.192 389.016C259.072 388.024 257.872 387.256 256.592 386.712C255.344 386.136 253.936 385.848 252.368 385.848C250.544 385.848 249.104 386.264 248.048 387.096C246.992 387.896 246.464 388.984 246.464 390.36C246.464 391.384 246.736 392.232 247.28 392.904C247.824 393.544 248.528 394.088 249.392 394.536C250.288 394.952 251.2 395.352 252.128 395.736L256.976 397.8C258.384 398.376 259.632 399.08 260.72 399.912C261.808 400.744 262.656 401.752 263.264 402.936C263.872 404.12 264.176 405.592 264.176 407.352C264.176 409.24 263.68 410.968 262.688 412.536C261.696 414.072 260.272 415.32 258.416 416.28C256.56 417.208 254.336 417.672 251.744 417.672ZM266.211 417L277.923 381.624H284.355L296.067 417H290.163L284.451 397.8C283.875 395.88 283.315 393.944 282.771 391.992C282.227 390.008 281.683 388.024 281.139 386.04H280.947C280.435 388.056 279.891 390.04 279.315 391.992C278.771 393.944 278.211 395.88 277.635 397.8L271.923 417H266.211ZM272.835 406.968V402.552H289.347V406.968H272.835ZM304.456 417V386.328H294.136V381.624H320.488V386.328H310.12V417H304.456Z" fill="white"/>
<path d="M562.908 417.672C560.476 417.672 558.172 417.208 555.996 416.28C553.852 415.352 551.964 414.072 550.332 412.44L553.596 408.6C554.876 409.848 556.332 410.856 557.964 411.624C559.628 412.392 561.324 412.776 563.052 412.776C565.164 412.776 566.78 412.312 567.9 411.384C569.052 410.456 569.628 409.256 569.628 407.784C569.628 406.696 569.388 405.832 568.908 405.192C568.428 404.52 567.756 403.96 566.892 403.512C566.06 403.064 565.1 402.6 564.012 402.12L559.116 400.008C557.964 399.528 556.828 398.904 555.708 398.136C554.62 397.336 553.708 396.344 552.972 395.16C552.268 393.944 551.916 392.472 551.916 390.744C551.916 388.888 552.412 387.224 553.404 385.752C554.396 384.28 555.772 383.128 557.532 382.296C559.292 381.432 561.292 381 563.532 381C565.612 381 567.58 381.4 569.436 382.2C571.292 383 572.876 384.088 574.188 385.464L571.356 389.016C570.236 388.024 569.036 387.256 567.756 386.712C566.508 386.136 565.1 385.848 563.532 385.848C561.708 385.848 560.268 386.264 559.212 387.096C558.156 387.896 557.628 388.984 557.628 390.36C557.628 391.384 557.9 392.232 558.444 392.904C558.988 393.544 559.692 394.088 560.556 394.536C561.452 394.952 562.364 395.352 563.292 395.736L568.14 397.8C569.548 398.376 570.796 399.08 571.884 399.912C572.972 400.744 573.82 401.752 574.428 402.936C575.036 404.12 575.34 405.592 575.34 407.352C575.34 409.24 574.844 410.968 573.852 412.536C572.86 414.072 571.436 415.32 569.58 416.28C567.724 417.208 565.5 417.672 562.908 417.672ZM594.991 417.672C593.039 417.672 591.247 417.384 589.615 416.808C588.015 416.232 586.639 415.32 585.487 414.072C584.335 412.824 583.439 411.192 582.799 409.176C582.159 407.16 581.839 404.712 581.839 401.832V381.624H587.407V402.168C587.407 404.824 587.727 406.936 588.367 408.504C589.039 410.04 589.935 411.144 591.055 411.816C592.207 412.456 593.519 412.776 594.991 412.776C596.495 412.776 597.823 412.456 598.975 411.816C600.127 411.144 601.039 410.04 601.711 408.504C602.383 406.936 602.719 404.824 602.719 402.168V381.624H608.095V401.832C608.095 404.712 607.775 407.16 607.135 409.176C606.527 411.192 605.647 412.824 604.495 414.072C603.343 415.32 601.951 416.232 600.319 416.808C598.719 417.384 596.943 417.672 594.991 417.672ZM617.234 417V381.624H622.946L634.658 402.408L638.354 409.848H638.594C638.434 408.056 638.258 406.136 638.066 404.088C637.906 402.04 637.826 400.056 637.826 398.136V381.624H643.154V417H637.442L625.73 396.168L622.034 388.776H621.842C621.97 390.6 622.114 392.504 622.274 394.488C622.434 396.472 622.514 398.44 622.514 400.392V417H617.234Z" fill="white"/>
<path d="M48.752 402V396.56C53.0613 392.72 56.7307 389.157 59.76 385.872C62.832 382.587 65.1787 379.536 66.8 376.72C68.4213 373.861 69.232 371.216 69.232 368.784C69.232 367.248 68.9547 365.904 68.4 364.752C67.8453 363.6 67.0347 362.725 65.968 362.128C64.944 361.488 63.664 361.168 62.128 361.168C60.4213 361.168 58.8427 361.659 57.392 362.64C55.984 363.579 54.6827 364.709 53.488 366.032L48.24 360.976C50.4587 358.587 52.72 356.795 55.024 355.6C57.3707 354.363 60.144 353.744 63.344 353.744C66.3307 353.744 68.9333 354.363 71.152 355.6C73.4133 356.795 75.1627 358.48 76.4 360.656C77.6373 362.832 78.256 365.392 78.256 368.336C78.256 371.195 77.5307 374.117 76.08 377.104C74.672 380.048 72.7733 382.992 70.384 385.936C67.9947 388.88 65.3493 391.781 62.448 394.64C63.6853 394.469 65.008 394.341 66.416 394.256C67.8667 394.128 69.1467 394.064 70.256 394.064H80.496V402H48.752Z" fill="#DE5492"/>
<path d="M102.63 402.896C99.43 402.896 96.614 401.979 94.182 400.144C91.7927 398.267 89.9153 395.493 88.55 391.824C87.2273 388.112 86.566 383.525 86.566 378.064C86.566 372.645 87.2273 368.144 88.55 364.56C89.9153 360.933 91.7927 358.224 94.182 356.432C96.614 354.64 99.43 353.744 102.63 353.744C105.873 353.744 108.689 354.661 111.078 356.496C113.467 358.288 115.323 360.976 116.646 364.56C118.011 368.144 118.694 372.645 118.694 378.064C118.694 383.525 118.011 388.112 116.646 391.824C115.323 395.493 113.467 398.267 111.078 400.144C108.689 401.979 105.873 402.896 102.63 402.896ZM102.63 395.536C104.038 395.536 105.275 395.003 106.342 393.936C107.409 392.869 108.241 391.077 108.838 388.56C109.435 386 109.734 382.501 109.734 378.064C109.734 373.669 109.435 370.235 108.838 367.76C108.241 365.243 107.409 363.493 106.342 362.512C105.275 361.488 104.038 360.976 102.63 360.976C101.307 360.976 100.091 361.488 98.982 362.512C97.9153 363.493 97.062 365.243 96.422 367.76C95.782 370.235 95.462 373.669 95.462 378.064C95.462 382.501 95.782 386 96.422 388.56C97.062 391.077 97.9153 392.869 98.982 393.936C100.091 395.003 101.307 395.536 102.63 395.536ZM179.474 402.896C177.255 402.896 175.101 402.427 173.01 401.488C170.962 400.549 169.149 399.12 167.57 397.2C165.991 395.237 164.733 392.763 163.794 389.776C162.898 386.747 162.45 383.141 162.45 378.96C162.45 374.565 162.941 370.768 163.922 367.568C164.946 364.368 166.311 361.765 168.018 359.76C169.725 357.712 171.666 356.197 173.842 355.216C176.061 354.235 178.386 353.744 180.818 353.744C183.719 353.744 186.215 354.277 188.306 355.344C190.439 356.368 192.21 357.627 193.618 359.12L188.626 364.752C187.815 363.813 186.749 363.003 185.426 362.32C184.103 361.637 182.759 361.296 181.394 361.296C179.474 361.296 177.725 361.851 176.146 362.96C174.61 364.069 173.373 365.904 172.434 368.464C171.495 371.024 171.026 374.523 171.026 378.96C171.026 383.056 171.389 386.341 172.114 388.816C172.882 391.248 173.885 393.019 175.122 394.128C176.359 395.237 177.746 395.792 179.282 395.792C180.477 395.792 181.543 395.472 182.482 394.832C183.463 394.149 184.253 393.168 184.85 391.888C185.447 390.565 185.746 388.944 185.746 387.024C185.746 385.147 185.447 383.611 184.85 382.416C184.295 381.221 183.506 380.325 182.482 379.728C181.501 379.131 180.327 378.832 178.962 378.832C177.682 378.832 176.338 379.237 174.93 380.048C173.522 380.816 172.221 382.181 171.026 384.144L170.578 377.808C171.431 376.613 172.434 375.589 173.586 374.736C174.781 373.883 175.997 373.243 177.234 372.816C178.514 372.389 179.666 372.176 180.69 372.176C183.335 372.176 185.682 372.709 187.73 373.776C189.821 374.843 191.442 376.464 192.594 378.64C193.746 380.816 194.322 383.611 194.322 387.024C194.322 390.267 193.639 393.083 192.274 395.472C190.951 397.819 189.159 399.653 186.898 400.976C184.637 402.256 182.162 402.896 179.474 402.896Z" fill="white"/>
<path d="M124.252 402V396.56C128.561 392.72 132.231 389.157 135.26 385.872C138.332 382.587 140.679 379.536 142.3 376.72C143.921 373.861 144.732 371.216 144.732 368.784C144.732 367.248 144.455 365.904 143.9 364.752C143.345 363.6 142.535 362.725 141.468 362.128C140.444 361.488 139.164 361.168 137.628 361.168C135.921 361.168 134.343 361.659 132.892 362.64C131.484 363.579 130.183 364.709 128.988 366.032L123.74 360.976C125.959 358.587 128.22 356.795 130.524 355.6C132.871 354.363 135.644 353.744 138.844 353.744C141.831 353.744 144.433 354.363 146.652 355.6C148.913 356.795 150.663 358.48 151.9 360.656C153.137 362.832 153.756 365.392 153.756 368.336C153.756 371.195 153.031 374.117 151.58 377.104C150.172 380.048 148.273 382.992 145.884 385.936C143.495 388.88 140.849 391.781 137.948 394.64C139.185 394.469 140.508 394.341 141.916 394.256C143.367 394.128 144.647 394.064 145.756 394.064H155.996V402H124.252Z" fill="#00AABE"/>
<path d="M514.531 150V60H525.104L546.249 120.043V60H556.822V150H546.249L525.104 89.9571V150H514.531Z" fill="white"/>
<path d="M448.924 150L433.349 60H443.922L454.494 120.814L465.067 60H475.64L486.099 120.814L496.671 60H507.244L491.669 150H480.642L470.296 90.3429L459.951 150H448.924Z" fill="white"/>
<path d="M394.261 150C392.139 150 390.282 149.1 388.691 147.3C387.099 145.5 386.303 143.271 386.303 140.614V69.3857C386.303 66.7286 387.099 64.5 388.691 62.7C390.282 60.9 392.139 60 394.261 60H420.067C422.493 60 424.463 60.9 425.979 62.7C427.571 64.5 428.366 66.7286 428.366 69.3857V140.614C428.366 143.271 427.571 145.5 425.979 147.3C424.463 149.1 422.493 150 420.067 150H394.261ZM400.741 138.171H413.587C414.876 138.171 415.899 137.7 416.657 136.757C417.491 135.814 417.907 134.657 417.907 133.286V76.7143C417.907 75.2571 417.491 74.1 416.657 73.2429C415.899 72.3 414.876 71.8286 413.587 71.8286H400.741C399.68 71.8286 398.733 72.3 397.899 73.2429C397.141 74.1 396.762 75.2571 396.762 76.7143V133.286C396.762 134.657 397.141 135.814 397.899 136.757C398.733 137.7 399.68 138.171 400.741 138.171Z" fill="#00AABE"/>
<path d="M335.679 150V60H369.784C371.982 60 373.877 60.9 375.468 62.7C377.06 64.5 377.856 66.6857 377.856 69.2571V140.743C377.856 143.314 377.06 145.5 375.468 147.3C373.877 149.1 371.982 150 369.784 150H335.679ZM346.251 138.043H363.304C364.365 138.043 365.312 137.614 366.146 136.757C366.98 135.814 367.397 134.7 367.397 133.414V76.5857C367.397 75.3 366.98 74.2286 366.146 73.3714C365.312 72.4286 364.365 71.9571 363.304 71.9571H346.251V138.043Z" fill="white"/>
<path d="M295.627 150V71.9571H279.825V60H322.002V71.9571H306.199V150H295.627Z" fill="white"/>
<path d="M230.654 150V60H241.226L262.372 120.043V60H272.944V150H262.372L241.226 89.9571V150H230.654Z" fill="white"/>
<path d="M188.214 150C185.94 150 184.008 149.1 182.416 147.3C180.825 145.5 180.029 143.314 180.029 140.743V60H190.601V133.543C190.601 134.743 190.98 135.814 191.738 136.757C192.572 137.614 193.557 138.043 194.694 138.043H207.54C208.677 138.043 209.625 137.614 210.382 136.757C211.216 135.814 211.633 134.743 211.633 133.543V60H222.206V140.743C222.206 143.314 221.41 145.5 219.818 147.3C218.227 149.1 216.294 150 214.02 150H188.214Z" fill="white"/>
<path d="M137.473 150C135.35 150 133.494 149.1 131.902 147.3C130.31 145.5 129.515 143.271 129.515 140.614V69.3857C129.515 66.7286 130.31 64.5 131.902 62.7C133.494 60.9 135.35 60 137.473 60H163.279C165.704 60 167.675 60.9 169.19 62.7C170.782 64.5 171.578 66.7286 171.578 69.3857V140.614C171.578 143.271 170.782 145.5 169.19 147.3C167.675 149.1 165.704 150 163.279 150H137.473ZM143.953 138.171H156.799C158.087 138.171 159.11 137.7 159.868 136.757C160.702 135.814 161.119 134.657 161.119 133.286V76.7143C161.119 75.2571 160.702 74.1 159.868 73.2429C159.11 72.3 158.087 71.8286 156.799 71.8286H143.953C142.891 71.8286 141.944 72.3 141.11 73.2429C140.353 74.1 139.974 75.2571 139.974 76.7143V133.286C139.974 134.657 140.353 135.814 141.11 136.757C141.944 137.7 142.891 138.171 143.953 138.171Z" fill="#DB5492"/>
<path d="M88.1853 150C86.0632 150 84.1684 149.1 82.5011 147.3C80.8337 145.5 80 143.314 80 140.743V69.2571C80 66.7714 80.8337 64.6286 82.5011 62.8286C84.1684 60.9429 86.0632 60 88.1853 60H113.992C116.341 60 118.274 60.9429 119.789 62.8286C121.381 64.6286 122.177 66.7714 122.177 69.2571V85.9714L111.604 88.6714V76.5857C111.604 75.3857 111.225 74.3143 110.467 73.3714C109.785 72.4286 108.838 71.9571 107.625 71.9571H94.6653C93.6042 71.9571 92.6568 72.4286 91.8232 73.3714C90.9895 74.3143 90.5726 75.3857 90.5726 76.5857V133.414C90.5726 134.786 90.9895 135.9 91.8232 136.757C92.6568 137.614 93.6042 138.043 94.6653 138.043H107.625C108.838 138.043 109.785 137.614 110.467 136.757C111.225 135.9 111.604 134.786 111.604 133.414V124.029L122.177 121.2V140.743C122.177 143.314 121.381 145.5 119.789 147.3C118.274 149.1 116.341 150 113.992 150H88.1853Z" fill="white"/>
<path d="M608.648 129.552H633.608V132.08H608.648V129.552ZM609.768 133.168H632.488V135.504H609.768V133.168ZM612.488 144.944H629.672V147.696H612.488V144.944ZM606.632 136.624H635.432V139.28H606.632V136.624ZM619.016 128.24H622.792V137.744H619.016V128.24ZM619.08 141.424H622.728V146.096H619.08V141.424ZM610.536 140.304H629.448V142.928H614.248V152.848H610.536V140.304ZM627.848 140.304H631.656V149.488C631.656 150.32 631.549 150.949 631.336 151.376C631.123 151.824 630.707 152.176 630.088 152.432C629.491 152.667 628.765 152.805 627.912 152.848C627.08 152.891 626.099 152.901 624.968 152.88C624.883 152.432 624.723 151.931 624.488 151.376C624.275 150.821 624.051 150.352 623.816 149.968C624.264 149.989 624.723 150 625.192 150C625.683 150 626.109 150 626.472 150C626.835 150 627.091 150 627.24 150C627.475 149.979 627.635 149.936 627.72 149.872C627.805 149.808 627.848 149.68 627.848 149.488V140.304ZM613.384 122.8H617.128V128.88H613.384V122.8ZM624.712 122.8H628.456V128.88H624.712V122.8ZM606.792 124.272H635.272V127.28H606.792V124.272ZM648.648 130.576H661.864V134.384H648.648V130.576ZM647.464 142.96L649.832 139.76C650.899 140.208 652.019 140.731 653.192 141.328C654.365 141.904 655.507 142.523 656.616 143.184C657.747 143.845 658.792 144.517 659.752 145.2C660.712 145.883 661.523 146.555 662.184 147.216L659.528 150.864C658.931 150.224 658.173 149.552 657.256 148.848C656.339 148.123 655.325 147.408 654.216 146.704C653.128 146 651.997 145.328 650.824 144.688C649.672 144.027 648.552 143.451 647.464 142.96ZM649.512 124.432L653.768 125.392C653.043 127.568 652.168 129.797 651.144 132.08C650.12 134.341 648.947 136.496 647.624 138.544C646.323 140.592 644.883 142.373 643.304 143.888C643.005 143.653 642.632 143.408 642.184 143.152C641.757 142.875 641.32 142.619 640.872 142.384C640.424 142.128 640.008 141.915 639.624 141.744C640.819 140.677 641.928 139.451 642.952 138.064C643.997 136.677 644.936 135.216 645.768 133.68C646.6 132.123 647.325 130.555 647.944 128.976C648.584 127.397 649.107 125.883 649.512 124.432ZM660.264 130.576H661.192L661.896 130.416L664.84 131.984C664.307 133.477 663.624 135.056 662.792 136.72C661.981 138.384 661.085 140.016 660.104 141.616C659.144 143.195 658.152 144.635 657.128 145.936C656.68 145.573 656.115 145.179 655.432 144.752C654.771 144.304 654.184 143.941 653.672 143.664C654.376 142.789 655.059 141.829 655.72 140.784C656.403 139.739 657.043 138.672 657.64 137.584C658.237 136.475 658.76 135.397 659.208 134.352C659.656 133.307 660.008 132.368 660.264 131.536V130.576ZM676.488 122.832L680.072 123.472C679.176 125.264 678.056 126.992 676.712 128.656C675.389 130.32 673.736 131.845 671.752 133.232C671.603 132.955 671.379 132.656 671.08 132.336C670.803 132.016 670.515 131.717 670.216 131.44C669.917 131.141 669.64 130.907 669.384 130.736C670.557 129.989 671.603 129.179 672.52 128.304C673.437 127.408 674.227 126.491 674.888 125.552C675.549 124.613 676.083 123.707 676.488 122.832ZM676.584 124.784H682.856V127.344H675.048L676.584 124.784ZM681.96 124.784H682.632L683.24 124.624L685.544 125.584C684.84 128.229 683.805 130.533 682.44 132.496C681.096 134.459 679.507 136.112 677.672 137.456C675.837 138.8 673.832 139.888 671.656 140.72C671.421 140.272 671.112 139.749 670.728 139.152C670.344 138.555 669.971 138.085 669.608 137.744C671.08 137.275 672.467 136.656 673.768 135.888C675.091 135.12 676.285 134.213 677.352 133.168C678.44 132.101 679.368 130.917 680.136 129.616C680.925 128.293 681.533 126.875 681.96 125.36V124.784ZM674.792 128.976L676.424 127.28C676.915 127.536 677.437 127.835 677.992 128.176C678.547 128.496 679.069 128.816 679.56 129.136C680.072 129.456 680.499 129.765 680.84 130.064L679.112 131.952C678.792 131.675 678.387 131.365 677.896 131.024C677.405 130.661 676.883 130.299 676.328 129.936C675.795 129.573 675.283 129.253 674.792 128.976ZM689.768 146.32L692.936 144.464C693.683 145.04 694.461 145.68 695.272 146.384C696.083 147.088 696.84 147.803 697.544 148.528C698.269 149.232 698.856 149.883 699.304 150.48L695.88 152.592C695.496 152.016 694.963 151.355 694.28 150.608C693.597 149.861 692.851 149.115 692.04 148.368C691.251 147.621 690.493 146.939 689.768 146.32ZM672.04 131.92L674.056 130.32C674.504 130.619 674.984 130.96 675.496 131.344C676.029 131.728 676.531 132.101 677 132.464C677.469 132.827 677.853 133.168 678.152 133.488L676.072 135.28C675.773 134.96 675.4 134.608 674.952 134.224C674.504 133.819 674.024 133.424 673.512 133.04C673.021 132.635 672.531 132.261 672.04 131.92ZM689.448 124.72H696.456V127.856H689.448V124.72ZM679.144 134.256H691.272V137.68H679.144V134.256ZM672.872 140.24H697.32V143.696H672.872V140.24ZM695.496 124.72H696.392L697.128 124.496L699.592 126.224C699.059 127.227 698.429 128.251 697.704 129.296C697 130.341 696.243 131.333 695.432 132.272C694.643 133.211 693.843 134.032 693.032 134.736C692.776 134.373 692.413 133.957 691.944 133.488C691.475 133.019 691.08 132.645 690.76 132.368C691.379 131.771 691.997 131.067 692.616 130.256C693.256 129.445 693.832 128.613 694.344 127.76C694.856 126.907 695.24 126.149 695.496 125.488V124.72ZM687.976 123.152C688.595 125.413 689.437 127.472 690.504 129.328C691.592 131.184 692.957 132.773 694.6 134.096C696.264 135.419 698.248 136.432 700.552 137.136C700.275 137.371 699.976 137.68 699.656 138.064C699.357 138.448 699.069 138.843 698.792 139.248C698.536 139.632 698.323 139.995 698.152 140.336C695.699 139.44 693.597 138.224 691.848 136.688C690.12 135.152 688.68 133.307 687.528 131.152C686.376 128.997 685.427 126.555 684.68 123.824L687.976 123.152ZM683.144 142.032H687.048V149.168C687.048 150.043 686.92 150.725 686.664 151.216C686.429 151.728 685.971 152.112 685.288 152.368C684.648 152.624 683.869 152.773 682.952 152.816C682.056 152.88 681.011 152.901 679.816 152.88C679.731 152.368 679.56 151.792 679.304 151.152C679.069 150.512 678.824 149.957 678.568 149.488C679.101 149.509 679.635 149.531 680.168 149.552C680.701 149.552 681.181 149.552 681.608 149.552C682.035 149.552 682.333 149.541 682.504 149.52C682.76 149.52 682.931 149.488 683.016 149.424C683.101 149.36 683.144 149.232 683.144 149.04V142.032ZM675.816 144.432L679.624 145.552C678.877 146.896 677.917 148.187 676.744 149.424C675.592 150.64 674.44 151.653 673.288 152.464C673.053 152.208 672.744 151.92 672.36 151.6C671.976 151.301 671.581 151.003 671.176 150.704C670.771 150.405 670.419 150.149 670.12 149.936C671.272 149.296 672.36 148.496 673.384 147.536C674.408 146.555 675.219 145.52 675.816 144.432ZM720.104 124.112C720.061 124.432 720.019 124.795 719.976 125.2C719.955 125.584 719.933 125.979 719.912 126.384C719.891 126.811 719.869 127.387 719.848 128.112C719.827 128.816 719.816 129.595 719.816 130.448C719.816 131.301 719.816 132.144 719.816 132.976C719.816 133.808 719.816 134.565 719.816 135.248C719.816 136.144 719.837 137.147 719.88 138.256C719.923 139.344 719.976 140.453 720.04 141.584C720.125 142.693 720.189 143.739 720.232 144.72C720.296 145.68 720.328 146.48 720.328 147.12C720.328 148.016 720.093 148.837 719.624 149.584C719.155 150.309 718.451 150.885 717.512 151.312C716.595 151.739 715.432 151.952 714.024 151.952C711.464 151.952 709.523 151.483 708.2 150.544C706.877 149.605 706.216 148.293 706.216 146.608C706.216 145.52 706.525 144.571 707.144 143.76C707.784 142.928 708.691 142.277 709.864 141.808C711.059 141.339 712.477 141.104 714.12 141.104C715.869 141.104 717.501 141.296 719.016 141.68C720.552 142.043 721.949 142.523 723.208 143.12C724.467 143.717 725.587 144.347 726.568 145.008C727.549 145.669 728.381 146.267 729.064 146.8L726.76 150.384C725.992 149.659 725.128 148.944 724.168 148.24C723.229 147.536 722.195 146.896 721.064 146.32C719.955 145.744 718.771 145.285 717.512 144.944C716.275 144.581 714.963 144.4 713.576 144.4C712.467 144.4 711.603 144.592 710.984 144.976C710.387 145.36 710.088 145.829 710.088 146.384C710.088 146.789 710.216 147.141 710.472 147.44C710.728 147.739 711.101 147.963 711.592 148.112C712.083 148.261 712.701 148.336 713.448 148.336C714.024 148.336 714.515 148.272 714.92 148.144C715.347 148.016 715.677 147.781 715.912 147.44C716.147 147.099 716.264 146.619 716.264 146C716.264 145.531 716.243 144.859 716.2 143.984C716.179 143.109 716.147 142.149 716.104 141.104C716.061 140.037 716.019 138.992 715.976 137.968C715.933 136.944 715.912 136.037 715.912 135.248C715.912 134.48 715.912 133.68 715.912 132.848C715.933 131.995 715.944 131.152 715.944 130.32C715.944 129.488 715.944 128.731 715.944 128.048C715.965 127.344 715.976 126.768 715.976 126.32C715.976 126.021 715.955 125.659 715.912 125.232C715.891 124.784 715.848 124.411 715.784 124.112H720.104ZM706.824 127.12C707.4 127.205 708.04 127.291 708.744 127.376C709.448 127.461 710.163 127.547 710.888 127.632C711.635 127.696 712.339 127.749 713 127.792C713.661 127.813 714.237 127.824 714.728 127.824C716.904 127.824 719.069 127.76 721.224 127.632C723.4 127.483 725.651 127.216 727.976 126.832L727.944 130.512C726.856 130.661 725.597 130.8 724.168 130.928C722.739 131.056 721.213 131.163 719.592 131.248C717.992 131.312 716.381 131.344 714.76 131.344C714.099 131.344 713.277 131.323 712.296 131.28C711.336 131.216 710.376 131.141 709.416 131.056C708.456 130.949 707.624 130.853 706.92 130.768L706.824 127.12ZM706.664 134.032C707.176 134.117 707.784 134.203 708.488 134.288C709.192 134.373 709.907 134.437 710.632 134.48C711.379 134.523 712.083 134.565 712.744 134.608C713.405 134.629 713.949 134.64 714.376 134.64C716.36 134.64 718.152 134.597 719.752 134.512C721.373 134.427 722.888 134.32 724.296 134.192C725.704 134.064 727.059 133.915 728.36 133.744L728.328 137.52C727.219 137.648 726.141 137.755 725.096 137.84C724.072 137.925 723.016 138 721.928 138.064C720.861 138.128 719.709 138.171 718.472 138.192C717.235 138.213 715.848 138.224 714.312 138.224C713.693 138.224 712.925 138.213 712.008 138.192C711.091 138.149 710.152 138.096 709.192 138.032C708.253 137.968 707.421 137.893 706.696 137.808L706.664 134.032ZM735.208 128.048C735.848 128.027 736.456 128.005 737.032 127.984C737.608 127.941 738.045 127.909 738.344 127.888C739.005 127.845 739.816 127.781 740.776 127.696C741.757 127.589 742.845 127.483 744.04 127.376C745.256 127.269 746.547 127.163 747.912 127.056C749.277 126.949 750.696 126.832 752.168 126.704C753.277 126.597 754.376 126.512 755.464 126.448C756.573 126.363 757.619 126.299 758.6 126.256C759.603 126.192 760.477 126.149 761.224 126.128L761.256 130.224C760.68 130.224 760.019 130.235 759.272 130.256C758.525 130.277 757.779 130.32 757.032 130.384C756.307 130.427 755.656 130.523 755.08 130.672C754.12 130.928 753.224 131.365 752.392 131.984C751.56 132.581 750.835 133.296 750.216 134.128C749.619 134.939 749.149 135.824 748.808 136.784C748.467 137.723 748.296 138.672 748.296 139.632C748.296 140.677 748.477 141.605 748.84 142.416C749.224 143.205 749.736 143.888 750.376 144.464C751.037 145.019 751.805 145.488 752.68 145.872C753.555 146.235 754.493 146.512 755.496 146.704C756.52 146.896 757.576 147.024 758.664 147.088L757.16 151.472C755.816 151.387 754.504 151.173 753.224 150.832C751.965 150.491 750.781 150.021 749.672 149.424C748.563 148.827 747.592 148.101 746.76 147.248C745.949 146.373 745.299 145.381 744.808 144.272C744.339 143.141 744.104 141.883 744.104 140.496C744.104 138.96 744.349 137.552 744.84 136.272C745.331 134.971 745.939 133.84 746.664 132.88C747.411 131.899 748.147 131.141 748.872 130.608C748.275 130.693 747.549 130.779 746.696 130.864C745.864 130.949 744.957 131.056 743.976 131.184C743.016 131.291 742.035 131.408 741.032 131.536C740.029 131.664 739.059 131.813 738.12 131.984C737.203 132.133 736.371 132.283 735.624 132.432L735.208 128.048ZM756.68 133.36C756.957 133.744 757.245 134.203 757.544 134.736C757.864 135.248 758.173 135.771 758.472 136.304C758.771 136.816 759.027 137.285 759.24 137.712L756.808 138.8C756.403 137.904 756.008 137.115 755.624 136.432C755.261 135.749 754.824 135.056 754.312 134.352L756.68 133.36ZM760.264 131.888C760.541 132.272 760.84 132.72 761.16 133.232C761.501 133.723 761.832 134.235 762.152 134.768C762.472 135.28 762.739 135.739 762.952 136.144L760.552 137.296C760.125 136.443 759.709 135.685 759.304 135.024C758.92 134.363 758.461 133.68 757.928 132.976L760.264 131.888Z" fill="white"/>
</g>
<defs>
<clipPath id="clip0_17_111">
<rect width="1120" height="579" fill="white"/>
</clipPath>
</defs>
</svg>
