<svg width="620" height="174" viewBox="0 0 620 174" fill="none" xmlns="http://www.w3.org/2000/svg">
<g clip-path="url(#clip0_18_383)">
<path d="M109.154 95.637L11.0049 169.678L155.999 171.474C69.6137 168.646 29.4717 157.634 109.154 95.637Z" fill="#DB5492"/>
<path d="M139.843 75.8372L237.992 1.79604L92.998 0C179.384 2.82853 219.526 13.8401 139.843 75.8372Z" fill="#00AABE"/>
<path d="M102.121 84.851L0 88.5151L77.9207 0L177.965 136.009L234.45 82.1185L139.561 82.4595L261.119 74.7182L167.266 174L65.4122 33.3564L21.4699 82.2338L102.121 84.851Z" fill="#0A1B6F"/>
<path d="M359.807 128.763L350.932 129.282V75.1745C350.932 74.2525 351.677 73.4553 352.598 73.4025L359.812 72.9751V128.763H359.807Z" fill="#0A1B6F"/>
<path d="M386.448 127.207L377.568 127.726V71.9282L384.787 71.5008C385.708 71.448 386.453 72.1539 386.453 73.076V127.207H386.448Z" fill="#0A1B6F"/>
<path d="M386.448 73.076V78.6562C386.448 79.583 385.703 80.3754 384.782 80.4282L352.593 82.3299C351.672 82.3827 350.927 81.6768 350.927 80.7548V75.1745C350.927 74.2525 351.672 73.4553 352.593 73.4025L384.782 71.5008C385.703 71.448 386.448 72.1539 386.448 73.076Z" fill="#0A1B6F"/>
<path d="M475.192 122.025L466.288 122.544V68.3554C466.288 67.4285 467.037 66.6362 467.959 66.5785L475.192 66.1511V122.021V122.025Z" fill="#0A1B6F"/>
<path d="M501.914 120.465L493.005 120.983V65.0994L500.243 64.672C501.164 64.6191 501.914 65.3251 501.914 66.2519V120.465Z" fill="#0A1B6F"/>
<path d="M501.913 66.2518V71.8416C501.913 72.7684 501.164 73.5608 500.242 73.6184L467.959 75.5249C467.037 75.5777 466.288 74.8718 466.288 73.9498V68.3647C466.288 67.4379 467.037 66.6455 467.959 66.5879L500.242 64.6766C501.164 64.6238 501.913 65.3297 501.913 66.2566V66.2518Z" fill="#0A1B6F"/>
<path d="M434.109 69.772V78.7042L395.657 80.9756V72.0434L434.109 69.772Z" fill="#0A1B6F"/>
<path d="M434.109 44.0127V52.9449L412.1 54.2511C411.178 54.3039 410.434 53.598 410.434 52.676V47.0957C410.434 46.1689 411.178 45.3765 412.1 45.3237L434.109 44.0127Z" fill="#0A1B6F"/>
<path d="M419.323 125.286L410.434 125.805V47.0957C410.434 46.1688 411.178 45.3765 412.1 45.3236L419.323 44.8962V125.291V125.286Z" fill="#0A1B6F"/>
<path d="M452.228 123.365L443.329 123.884V69.7095C443.329 68.7827 444.073 67.9903 444.995 67.9375L450.557 67.6109C451.478 67.5581 452.223 68.264 452.223 69.1861V123.365H452.228Z" fill="#DB5492"/>
<path d="M450.557 55.2979L444.995 55.6293C444.073 55.6821 443.329 54.9762 443.329 54.0541V48.4691C443.329 47.5423 444.073 46.7499 444.995 46.6923L450.557 46.3609C451.478 46.3081 452.223 47.014 452.223 47.9361V53.5211C452.223 54.4479 451.478 55.2403 450.557 55.2979Z" fill="#DB5492"/>
<path d="M523.23 50.9904L517.659 51.3217C516.737 51.3746 515.988 50.6686 515.988 49.7418V44.152C515.988 43.2252 516.737 42.4328 517.659 42.3751L523.23 42.0438C524.152 41.991 524.901 42.6969 524.901 43.6237V49.2136C524.901 50.1404 524.152 50.9376 523.23 50.9904Z" fill="#00AABE"/>
<path d="M524.906 119.12L515.993 119.639V65.4164C515.993 64.4896 516.742 63.6972 517.664 63.6396L523.235 63.3082C524.157 63.2554 524.906 63.9613 524.906 64.8881V119.12Z" fill="#00AABE"/>
<path d="M578.76 61.7041V70.6555L534.149 73.2919V64.3453L578.76 61.7041Z" fill="#0A1B6F"/>
<path d="M560.909 117.017L551.986 117.54V38.6823C551.986 37.7554 552.735 36.9582 553.657 36.9054L559.233 36.5741C560.159 36.5212 560.904 37.2272 560.904 38.154V117.021L560.909 117.017Z" fill="#0A1B6F"/>
<path d="M340.07 154.469L336.189 154.695C334.351 154.801 332.861 153.389 332.861 151.54V49.8425C332.861 48.9205 333.606 48.1233 334.523 48.0705L340.066 47.7391C340.982 47.6863 341.727 48.3874 341.727 49.3143V152.697C341.727 153.619 340.982 154.412 340.066 154.469H340.07Z" fill="#0A1B6F"/>
<path d="M620 132.609V134.847C620 136.701 618.501 138.295 616.648 138.401L336.189 154.695C334.351 154.801 332.861 153.389 332.861 151.54V149.307C332.861 147.458 334.351 145.873 336.189 145.768L616.648 129.445C618.501 129.339 620 130.756 620 132.609Z" fill="#0A1B6F"/>
<path d="M620 98.3213V103.921C620 104.848 619.25 105.645 618.324 105.698L589.693 107.373C588.767 107.426 588.017 106.72 588.017 105.794V100.199C588.017 99.2721 588.767 98.4749 589.693 98.4221L618.324 96.7413C619.25 96.6885 620 97.3944 620 98.3213Z" fill="#0A1B6F"/>
<path d="M596.95 106.946L589.693 107.369C588.767 107.422 588.017 106.716 588.017 105.789V58.7892C588.017 57.8624 588.767 57.0652 589.693 57.0124L595.274 56.681C596.2 56.6282 596.95 57.3341 596.95 58.2609V106.946Z" fill="#0A1B6F"/>
<path d="M616.648 138.401L611.062 138.727V57.5934C611.062 56.6666 611.812 55.8694 612.738 55.8166L618.324 55.4852C619.25 55.4324 620 56.1383 620 57.0651V134.847C620 136.701 618.501 138.295 616.648 138.401Z" fill="#0A1B6F"/>
</g>
<defs>
<clipPath id="clip0_18_383">
<rect width="620" height="174" fill="white"/>
</clipPath>
</defs>
</svg>
