<svg width="265" height="74" viewBox="0 0 265 74" fill="none" xmlns="http://www.w3.org/2000/svg">
<g clip-path="url(#clip0_13_3)">
<path d="M46.6545 40.6732L4.70361 72.1619L66.677 72.9257C29.7542 71.7228 12.5967 67.0397 46.6545 40.6732Z" fill="#DB5492"/>
<path d="M59.7715 32.2526L101.722 0.763834L39.749 0C76.6719 1.20294 93.8293 5.88601 59.7715 32.2526Z" fill="#00AABE"/>
<path d="M43.6487 36.0861L0 37.6444L33.3048 0L76.0659 57.8431L100.208 34.924L59.6512 35.069L111.607 31.7767L71.4928 74L27.9584 14.1861L9.17663 34.973L43.6487 36.0861Z" fill="#0A1B6F"/>
<path d="M153.789 54.7612L149.995 54.9817V31.9707C149.995 31.5786 150.313 31.2396 150.707 31.2171L153.791 31.0353V54.7612H153.789Z" fill="#0A1B6F"/>
<path d="M165.175 54.0995L161.38 54.32V30.5901L164.465 30.4083C164.859 30.3859 165.177 30.6861 165.177 31.0782V54.0995H165.175Z" fill="#0A1B6F"/>
<path d="M165.175 31.0782V33.4514C165.175 33.8456 164.857 34.1826 164.463 34.2051L150.705 35.0138C150.312 35.0363 149.993 34.7361 149.993 34.3439V31.9707C149.993 31.5786 150.312 31.2396 150.705 31.2171L164.463 30.4083C164.857 30.3859 165.175 30.6861 165.175 31.0782Z" fill="#0A1B6F"/>
<path d="M203.106 51.8958L199.3 52.1163V29.0706C199.3 28.6764 199.621 28.3395 200.015 28.3149L203.106 28.1332V51.8937V51.8958Z" fill="#0A1B6F"/>
<path d="M214.528 51.232L210.72 51.4526V27.6859L213.813 27.5042C214.207 27.4817 214.528 27.7819 214.528 28.1761V51.232Z" fill="#0A1B6F"/>
<path d="M214.527 28.1761V30.5534C214.527 30.9475 214.207 31.2845 213.813 31.309L200.015 32.1198C199.621 32.1423 199.3 31.8421 199.3 31.4499V29.0747C199.3 28.6805 199.621 28.3435 200.015 28.319L213.813 27.5062C214.207 27.4837 214.527 27.7839 214.527 28.1781V28.1761Z" fill="#0A1B6F"/>
<path d="M185.547 29.6731V33.4718L169.112 34.4379V30.6391L185.547 29.6731Z" fill="#0A1B6F"/>
<path d="M185.547 18.718V22.5168L176.139 23.0723C175.746 23.0947 175.427 22.7945 175.427 22.4024V20.0292C175.427 19.635 175.746 19.298 176.139 19.2756L185.547 18.718Z" fill="#0A1B6F"/>
<path d="M179.227 53.2825L175.427 53.5031V20.0292C175.427 19.635 175.746 19.298 176.139 19.2756L179.227 19.0938V53.2846V53.2825Z" fill="#0A1B6F"/>
<path d="M193.291 52.4656L189.487 52.6862V29.6466C189.487 29.2524 189.806 28.9154 190.199 28.8929L192.577 28.7541C192.971 28.7316 193.289 29.0318 193.289 29.4239V52.4656H193.291Z" fill="#DB5492"/>
<path d="M192.577 23.5175L190.199 23.6584C189.806 23.6809 189.487 23.3807 189.487 22.9885V20.6133C189.487 20.2191 189.806 19.8821 190.199 19.8576L192.577 19.7167C192.971 19.6942 193.289 19.9945 193.289 20.3866V22.7618C193.289 23.156 192.971 23.493 192.577 23.5175Z" fill="#DB5492"/>
<path d="M223.639 21.6855L221.258 21.8264C220.864 21.8489 220.543 21.5487 220.543 21.1545V18.7772C220.543 18.3831 220.864 18.0461 221.258 18.0216L223.639 17.8806C224.033 17.8582 224.353 18.1584 224.353 18.5526V20.9298C224.353 21.324 224.033 21.663 223.639 21.6855Z" fill="#00AABE"/>
<path d="M224.355 50.6602L220.545 50.8808V27.8207C220.545 27.4266 220.866 27.0896 221.26 27.0651L223.641 26.9242C224.035 26.9017 224.355 27.2019 224.355 27.5961V50.6602Z" fill="#00AABE"/>
<path d="M247.373 26.242V30.0489L228.306 31.1702V27.3653L247.373 26.242Z" fill="#0A1B6F"/>
<path d="M239.744 49.7657L235.93 49.9883V16.4511C235.93 16.0569 236.25 15.7179 236.644 15.6954L239.027 15.5545C239.423 15.532 239.742 15.8322 239.742 16.2264V49.7677L239.744 49.7657Z" fill="#0A1B6F"/>
<path d="M145.353 65.6938L143.694 65.7898C142.908 65.8348 142.271 65.2343 142.271 64.448V21.1974C142.271 20.8053 142.59 20.4663 142.982 20.4438L145.351 20.3029C145.743 20.2804 146.061 20.5786 146.061 20.9728V64.9402C146.061 65.3323 145.743 65.6693 145.351 65.6938H145.353Z" fill="#0A1B6F"/>
<path d="M265 56.3971V57.3488C265 58.1372 264.359 58.8152 263.568 58.8602L143.694 65.7898C142.908 65.8347 142.271 65.2343 142.271 64.448V63.4983C142.271 62.712 142.908 62.038 143.694 61.9931L263.568 55.0512C264.359 55.0063 265 55.6088 265 56.3971Z" fill="#0A1B6F"/>
<path d="M265 41.8148V44.1962C265 44.5904 264.68 44.9294 264.284 44.9519L252.046 45.6646C251.65 45.6871 251.33 45.3869 251.33 44.9927V42.6134C251.33 42.2192 251.65 41.8802 252.046 41.8577L264.284 41.1429C264.68 41.1204 265 41.4207 265 41.8148Z" fill="#0A1B6F"/>
<path d="M255.148 45.4829L252.046 45.6626C251.65 45.6851 251.33 45.3848 251.33 44.9907V25.0023C251.33 24.6082 251.65 24.2691 252.046 24.2467L254.432 24.1057C254.828 24.0833 255.148 24.3835 255.148 24.7777V45.4829Z" fill="#0A1B6F"/>
<path d="M263.568 58.8602L261.18 58.9991V24.4938C261.18 24.0996 261.501 23.7606 261.896 23.7381L264.284 23.5972C264.68 23.5747 265 23.8749 265 24.2691V57.3489C265 58.1372 264.359 58.8153 263.568 58.8602Z" fill="#0A1B6F"/>
</g>
<defs>
<clipPath id="clip0_13_3">
<rect width="265" height="74" fill="white"/>
</clipPath>
</defs>
</svg>
