<svg width="60" height="24" viewBox="0 0 60 24" fill="none" xmlns="http://www.w3.org/2000/svg">
<path d="M5.63046 18.7302L3.77588 18.8356V7.84282C3.77588 7.65549 3.93151 7.49353 4.12405 7.4828L5.63146 7.39597V18.7302H5.63046Z" fill="white"/>
<path d="M11.1974 18.4142L9.3418 18.5196V7.18339L10.8502 7.09656C11.0427 7.08583 11.1984 7.22925 11.1984 7.41657V18.4142H11.1974Z" fill="white"/>
<path d="M11.1972 7.41657V8.55029C11.1972 8.73859 11.0416 8.89957 10.849 8.91031L4.12308 9.29667C3.93054 9.3074 3.7749 9.16398 3.7749 8.97665V7.84294C3.7749 7.65561 3.93054 7.49365 4.12308 7.48292L10.849 7.09656C11.0416 7.08583 11.1972 7.22925 11.1972 7.41657Z" fill="white"/>
<path d="M29.7414 17.3615L27.8809 17.4669V6.45753C27.8809 6.26923 28.0375 6.10825 28.23 6.09654L29.7414 6.0097V17.3605V17.3615Z" fill="white"/>
<path d="M35.3249 17.0443L33.4634 17.1497V5.79597L34.9758 5.70914C35.1683 5.69841 35.3249 5.84183 35.3249 6.03013V17.0443Z" fill="white"/>
<path d="M35.3251 6.03009V7.16575C35.3251 7.35405 35.1685 7.51504 34.9759 7.52674L28.23 7.91408C28.0375 7.92481 27.8809 7.78139 27.8809 7.59406V6.45937C27.8809 6.27107 28.0375 6.11009 28.23 6.09838L34.9759 5.71007C35.1685 5.69934 35.3251 5.84276 35.3251 6.03106V6.03009Z" fill="white"/>
<path d="M21.1564 6.74541V8.56013L13.1216 9.02162V7.20689L21.1564 6.74541Z" fill="white"/>
<path d="M21.1567 1.51199V3.32672L16.5576 3.5921C16.3651 3.60283 16.2095 3.45941 16.2095 3.27208V2.13837C16.2095 1.95006 16.3651 1.78908 16.5576 1.77835L21.1567 1.51199Z" fill="white"/>
<path d="M18.067 18.0239L16.2095 18.1292V2.13821C16.2095 1.94991 16.3651 1.78893 16.5576 1.77819L18.067 1.69136V18.0248V18.0239Z" fill="white"/>
<path d="M24.9426 17.6337L23.083 17.739V6.73264C23.083 6.54434 23.2386 6.38335 23.4312 6.37262L24.5934 6.30627C24.7859 6.29554 24.9416 6.43897 24.9416 6.62629V17.6337H24.9426Z" fill="#DB5492"/>
<path d="M24.5934 3.80458L23.4312 3.8719C23.2386 3.88263 23.083 3.73921 23.083 3.55188V2.41719C23.083 2.22889 23.2386 2.06791 23.4312 2.0562L24.5934 1.98888C24.7859 1.97814 24.9416 2.12157 24.9416 2.30889V3.44358C24.9416 3.63188 24.7859 3.79287 24.5934 3.80458Z" fill="#DB5492"/>
<path d="M39.779 2.92947L38.6148 2.99679C38.4223 3.00752 38.2656 2.8641 38.2656 2.6758V1.54013C38.2656 1.35183 38.4223 1.19084 38.6148 1.17914L39.779 1.11182C39.9715 1.10108 40.1282 1.24451 40.1282 1.43281V2.56847C40.1282 2.75678 39.9715 2.91873 39.779 2.92947Z" fill="#00AABE"/>
<path d="M40.1292 16.7711L38.2666 16.8765V5.86034C38.2666 5.67203 38.4232 5.51105 38.6158 5.49934L39.78 5.43202C39.9725 5.42129 40.1292 5.56471 40.1292 5.75301V16.7711Z" fill="#00AABE"/>
<path d="M51.3823 5.10629V6.92492L42.0605 7.46055V5.6429L51.3823 5.10629Z" fill="white"/>
<path d="M47.6526 16.3438L45.7881 16.4502V0.428879C45.7881 0.240577 45.9447 0.0786172 46.1373 0.067885L47.3025 0.000565085C47.496 -0.0101672 47.6516 0.133254 47.6516 0.321556V16.3448L47.6526 16.3438Z" fill="white"/>
<path d="M1.50641 23.953L0.695339 23.9989C0.311255 24.0203 0 23.7335 0 23.3579V2.69635C0 2.50903 0.155627 2.34707 0.34717 2.33634L1.50541 2.26902C1.69695 2.25828 1.85258 2.40073 1.85258 2.58903V23.593C1.85258 23.7803 1.69695 23.9413 1.50541 23.953H1.50641Z" fill="white"/>
<path d="M59.9999 19.5118V19.9664C59.9999 20.343 59.6867 20.667 59.2996 20.6884L0.695339 23.9988C0.311255 24.0203 0 23.7334 0 23.3578V22.9041C0 22.5285 0.311255 22.2065 0.695339 22.1851L59.2996 18.8688C59.6867 18.8474 59.9999 19.1352 59.9999 19.5118Z" fill="white"/>
<path d="M60 12.5455V13.6832C60 13.8715 59.8433 14.0334 59.6498 14.0442L53.6671 14.3847C53.4735 14.3954 53.3169 14.252 53.3169 14.0637V12.927C53.3169 12.7387 53.4735 12.5768 53.6671 12.566L59.6498 12.2245C59.8433 12.2138 60 12.3572 60 12.5455Z" fill="white"/>
<path d="M55.1834 14.2979L53.6671 14.3837C53.4735 14.3944 53.3169 14.251 53.3169 14.0627V4.51396C53.3169 4.32566 53.4735 4.1637 53.6671 4.15297L54.8333 4.08565C55.0268 4.07492 55.1834 4.21834 55.1834 4.40664V14.2979Z" fill="white"/>
<path d="M59.2995 20.6885L58.1323 20.7549V4.27113C58.1323 4.08283 58.289 3.92087 58.4825 3.91014L59.6497 3.84282C59.8432 3.83209 59.9999 3.97551 59.9999 4.16381V19.9665C59.9999 20.3431 59.6866 20.6671 59.2995 20.6885Z" fill="white"/>
</svg>
