<svg width="435" height="289" viewBox="0 0 435 289" fill="none" xmlns="http://www.w3.org/2000/svg">
<g clip-path="url(#clip0_18_364)">
<path d="M431.105 235.059L435 211.22L433.483 211.523L431.105 211.977L435 188.087L433.483 188.39L431.105 188.845L435 164.955L433.483 165.258L431.207 165.662L434.444 140.459L432.926 140.813L430.043 141.47L429.942 113.59L428.475 114.044L424.833 115.257L418.511 86.6697L417.196 87.3263L413.503 89.2456L398.177 60.6082L397.064 61.6183L393.726 64.6487L373.949 40.1529L373.089 41.3146L370.256 45.0016L347.697 24.6978L346.989 25.809L344.561 29.5465L317.955 11.162L317.399 12.2732L315.476 16.0107L285.987 0L285.583 1.16166L273.898 33.688C255.993 30.2536 237.025 28.4353 217.5 28.4353C197.976 28.4353 179.008 30.2536 161.102 33.688L148.962 0L147.799 0.606082L119.473 16.0107L116.995 11.1115L115.882 11.8691L90.3386 29.496L87.2025 24.6473L86.1909 25.5564L64.6432 44.9006L60.9508 40.0519L60.0403 41.1631L41.1735 64.5477L36.7729 60.5072L36.1153 61.7698L21.4973 89.1445L16.4897 86.5687L16.1862 87.8819L10.1165 115.156L5.05834 113.539V114.903L4.95718 141.419L0.556595 140.459L0.758921 141.823L3.84439 165.662L0.0507812 164.955L0.303688 166.319L3.94555 188.845L0.0507812 188.087L0.303688 189.451L3.94555 211.927L0.0507812 211.169L0.303688 212.533L3.94555 235.008L0.0507812 234.301L5.76648 263.444H6.67695H29.9444V287.99V288.949H31.0572H405.208V280.262C405.208 280.262 405.208 273.797 405.208 263.444H429.386L429.537 262.635L435.101 234.301L431.207 235.008L431.105 235.059ZM427.464 261.575H405.107V241.726L432.319 236.776L427.464 261.575ZM7.53683 261.575L2.68101 236.776L29.8938 241.726V261.575H7.53683ZM44.3601 103.185C40.5159 109.6 37.3799 116.317 35.0025 123.388L12.1903 115.863L18.0072 89.5991L44.3601 103.185ZM23.3688 90.1042L37.4304 63.8911L59.2816 83.7908C54.0211 89.3466 49.3171 95.2559 45.3717 101.519L23.5206 90.3062L23.3688 90.1547V90.1042ZM411.632 90.1042L411.48 90.2557L389.629 101.519C385.683 95.2559 380.979 89.2961 375.769 83.7908L397.671 63.8911L411.682 90.1042H411.632ZM416.993 89.6496L422.81 115.913L399.998 123.439C397.621 116.368 394.485 109.65 390.64 103.286L416.993 89.7001V89.6496ZM32.0182 154.904C32.0182 152.228 32.17 149.601 32.3217 146.975L47.6985 147.985C47.4961 150.308 47.395 152.632 47.395 155.056V161.824H31.9676V155.056C31.9676 155.056 31.9676 154.904 31.9676 154.854L32.0182 154.904ZM292.867 54.1938C288.213 52.8301 283.408 51.5675 278.552 50.4563L282.396 37.375C287.657 38.5872 292.816 39.9004 297.874 41.4156L292.867 54.1938ZM299.897 42.0722C305.057 43.6379 310.115 45.4056 314.971 47.2744L308.648 59.598C304.197 57.8808 299.594 56.3151 294.839 54.8504L299.847 42.0722H299.897ZM316.994 48.0825C322.001 50.0523 326.857 52.2241 331.561 54.5474L323.924 66.2649C319.675 64.1437 315.274 62.2244 310.722 60.4062L317.044 48.0825H316.994ZM333.433 55.4565C338.187 57.8808 342.689 60.4062 347.09 63.1335C347.09 63.184 347.191 63.184 347.242 63.2345L338.137 74.144C334.242 71.6692 330.094 69.3459 325.795 67.1741L333.433 55.4565ZM402.932 154.904V155.207C402.932 157.985 402.932 160.814 402.932 163.794H387.555V155.106C387.555 153.238 387.454 151.369 387.353 149.551L402.729 148.591C402.831 150.662 402.932 152.783 402.932 154.904ZM387.555 225.462V211.977H402.932V225.462H387.555ZM387.555 210.058V196.573H402.932V210.058H387.555ZM387.555 194.653V181.168H402.932V194.653H387.555ZM387.555 179.198V165.713H402.932V179.198H387.555ZM387.201 147.631C386.847 143.086 386.088 138.742 385.076 134.5L400.099 131.57C401.313 136.469 402.173 141.52 402.578 146.722L387.201 147.631ZM384.621 132.681C383.508 128.489 382.143 124.499 380.423 120.61L394.737 115.661C396.761 120.206 398.379 124.903 399.644 129.752L384.621 132.681ZM379.614 118.843C377.793 114.954 375.668 111.166 373.291 107.529L386.543 100.711C389.325 104.953 391.804 109.347 393.928 113.893L379.614 118.843ZM372.178 105.913C369.7 102.327 367.019 98.8418 363.933 95.5084L375.921 87.0232C379.411 90.8618 382.547 94.8518 385.43 99.0439L372.178 105.913ZM362.618 94.0437C359.533 90.8113 356.245 87.7303 352.654 84.801L363.225 74.9521C367.272 78.3361 371.065 81.8716 374.556 85.6091L362.618 94.0942V94.0437ZM351.136 83.4878C347.596 80.6594 343.853 77.932 339.907 75.3057L348.961 64.3962C353.412 67.2751 357.661 70.3055 361.657 73.5884L351.136 83.4373V83.4878ZM385.38 155.106C385.38 193.946 385.38 250.312 385.38 271.676H241.223C241.071 267.131 240.97 260.11 240.97 256.171C240.97 253.595 241.274 238.493 243.145 234.806C246.079 228.695 253.211 223.947 260.849 220.412L294.738 229.149L300.302 212.533L288.82 209.603C289.579 209.199 290.439 208.896 291.197 208.492C298.026 205.007 304.146 201.623 308.749 196.775C310.722 194.704 312.593 192.027 315.426 187.734C319.321 181.825 319.928 173.137 320.282 168.895C320.585 164.905 320.939 160.915 320.939 156.925C320.939 155.359 320.939 153.844 320.737 152.278C319.877 142.076 318.612 131.015 310.418 122.429C306.119 117.883 300.757 114.347 295.092 111.469L321.9 105.458L317.095 88.892H316.235H316.083L268.638 99.5994C265.553 97.9832 262.669 96.2155 259.584 94.4983C253.969 91.4173 243.651 83.3363 238.643 74.3965C235.406 68.6893 233.737 62.881 233.282 56.6181C233.13 54.2948 232.978 49.7492 232.978 46.2137C273.443 48.335 309.963 58.7899 336.771 75.7602C367.069 94.9023 385.228 121.469 385.329 155.157L385.38 155.106ZM190.237 200.209L139.605 187.077V130.56L182.447 120.913V119.095L115.73 104.044L119.575 90.9123L209.862 111.216V75.0531H225.239V111.216L315.578 90.9123L319.422 104.044L252.654 119.095V120.913L295.446 130.56V187.077L244.865 200.159L297.672 213.795L293.322 226.725L225.239 209.149V235.008H209.862V209.149L141.78 226.725L137.43 213.745L190.287 200.108L190.237 200.209ZM201.668 56.5676C201.213 62.881 199.544 68.6388 196.307 74.346C191.249 83.2352 180.98 91.3163 175.366 94.4478C172.28 96.165 169.347 97.9327 166.312 99.5489L117.956 88.6395L113.05 105.408L139.858 111.418C134.142 114.297 128.831 117.832 124.532 122.378C116.337 130.964 115.073 142.025 114.213 152.228C114.061 153.743 114.011 155.308 114.011 156.874C114.011 160.864 114.365 164.854 114.719 168.844C115.073 173.087 115.68 181.774 119.575 187.683C122.458 192.027 124.279 194.653 126.302 196.724C130.905 201.573 137.025 204.957 143.854 208.442C144.612 208.846 145.422 209.199 146.231 209.553L134.749 212.482L140.313 229.099L174.203 220.361C181.84 223.897 188.972 228.644 191.906 234.756C193.778 238.443 194.081 253.544 194.081 256.12C194.081 260.06 193.98 267.131 193.828 271.626H49.6206C49.6206 250.564 49.6206 195.512 49.6206 155.056C49.7217 121.368 67.8804 94.8518 98.1787 75.6592C125.037 58.7394 161.557 48.234 202.022 46.1127C202.022 49.6482 201.871 54.1938 201.719 56.5171L201.668 56.5676ZM143.095 53.9413L138.138 41.1631C143.196 39.6479 148.406 38.3852 153.667 37.173L157.41 50.3048C152.503 51.4159 147.748 52.6281 143.095 53.9918V53.9413ZM141.021 54.5474C136.266 56.0121 131.664 57.5778 127.162 59.2445L120.991 46.8703C125.897 45.0016 130.955 43.2843 136.115 41.7186L141.072 54.4969L141.021 54.5474ZM125.24 60.0526C120.637 61.8709 116.236 63.7901 111.987 65.8609L104.4 54.0928C109.104 51.7695 113.96 49.6482 119.018 47.6784L125.24 60.0526ZM110.116 66.77C105.766 68.9418 101.618 71.2146 97.7235 73.6389L88.72 62.679C93.1206 59.9516 97.7741 57.3758 102.579 54.9514L110.166 66.7195L110.116 66.77ZM95.9025 74.7501C91.9066 77.3259 88.1636 80.0028 84.5723 82.8312L74.102 72.8813C78.1485 69.6489 82.3973 66.6185 86.8991 63.7396L95.9025 74.6996V74.7501ZM83.0043 84.1949C79.413 87.1243 76.1252 90.2052 72.9892 93.3871L61.1025 84.801C64.6432 81.0634 68.4368 77.528 72.5339 74.1945L83.0043 84.1444V84.1949ZM59.7368 86.2656L71.6235 94.8518C68.5886 98.1348 65.8066 101.62 63.2775 105.155L50.1264 98.2358C53.0095 94.0942 56.2467 90.0537 59.7874 86.2656H59.7368ZM49.0136 99.852L62.2153 106.822C59.7874 110.408 57.6124 114.196 55.7915 118.085L41.5275 113.034C43.7025 108.489 46.2316 104.145 49.0136 99.9025V99.852ZM54.881 119.802C53.1613 123.641 51.745 127.681 50.5816 131.772L35.5589 128.742C36.874 123.944 38.5432 119.247 40.6171 114.701L54.881 119.802ZM35.1037 130.611L50.1264 133.641C49.1147 137.682 48.356 141.874 47.9514 146.116L32.5746 145.056C33.0804 140.106 33.9403 135.257 35.1543 130.56L35.1037 130.611ZM47.4456 163.743V179.198H32.0182V163.743H47.4456ZM47.4456 181.117V194.603H32.0182V181.117H47.4456ZM47.4456 196.522V210.007H32.0182V196.522H47.4456ZM47.4456 211.927V225.412H32.0182V211.927H47.4456ZM47.4456 227.331V240.817H32.0182V227.331H47.4456ZM47.4456 242.736V256.272H32.0182V242.736H47.4456ZM387.555 242.736H402.932V256.272H387.555V242.736ZM387.555 240.867V227.382H402.932V240.867H387.555ZM259.685 46.9208C254.779 46.2137 249.822 45.6077 244.814 45.1026L246.382 31.6678C251.744 32.1728 257.105 32.8294 262.315 33.587L259.635 46.8703L259.685 46.9208ZM242.69 44.9511C237.783 44.547 232.725 44.244 227.667 44.042L228.173 30.5061C233.585 30.7081 238.947 31.0112 244.207 31.4657L242.639 44.9006L242.69 44.9511ZM208.345 43.9914C203.287 44.1935 198.279 44.4965 193.322 44.8501L191.805 31.4152C197.116 30.9607 202.427 30.6576 207.839 30.5061L208.294 43.9914H208.345ZM191.147 45.0016C186.089 45.4561 181.183 46.0622 176.276 46.7693L173.697 33.4355C178.957 32.6779 184.268 32.0213 189.68 31.5668L191.198 45.0016H191.147ZM32.0182 273.595H47.4456V287.131H32.0182V273.595ZM49.6206 273.545H65.1996V287.081H49.6206V273.545ZM67.3746 273.545H83.0043V287.081H67.3746V273.545ZM85.1793 273.545H100.809V287.081H85.1793V273.545ZM102.984 273.545H118.614V287.081H102.984V273.545ZM120.738 273.545H136.368V287.081H120.738V273.545ZM138.543 273.545H154.172V287.081H138.543V273.545ZM156.347 273.545H171.977V287.081H156.347V273.545ZM174.101 273.545H189.731V287.081H174.101V273.545ZM191.906 273.545H207.536V287.081H191.906V273.545ZM209.711 273.545H225.29V287.081H209.711V273.545ZM227.465 273.545H243.094V287.081H227.465V273.545ZM245.269 273.545H260.899V287.081H245.269V273.545ZM263.074 273.545H278.704V287.081H263.074V273.545ZM280.828 273.545H296.458V287.081H280.828V273.545ZM298.633 273.545H314.262V287.081H298.633V273.545ZM316.438 273.545H332.017V287.081H316.438V273.545ZM334.192 273.545H349.821V287.081H334.192V273.545ZM351.996 273.545H367.626V287.081H351.996V273.545ZM369.75 273.545H385.38V287.081H369.75V273.545ZM405.107 239.806V218.897L432.37 213.644L428.829 235.463L405.107 239.806ZM405.107 216.977V195.764L432.37 190.512L428.829 212.381L405.107 216.927V216.977ZM405.107 193.845V172.632L432.37 167.43L428.829 189.3L405.107 193.845ZM405.107 170.713V155.106C405.107 155.106 405.107 154.955 405.107 154.904C405.107 152.884 405.006 150.914 404.854 148.995L431.864 143.035L428.88 166.218L405.056 170.764L405.107 170.713ZM404.803 147.025C404.196 139.5 402.78 132.227 400.605 125.257L427.767 116.267L427.868 141.924L404.803 147.025ZM374.303 82.3766C368.84 76.7704 362.719 71.6187 356.093 66.871L374.05 43.4864L392.259 66.0124L374.303 82.3766ZM354.424 65.6084C352.451 64.2447 350.378 62.881 348.304 61.6183C343.195 58.3859 337.783 55.4565 332.168 52.6786L348.203 27.8293L369.042 46.5673L354.424 65.6084ZM330.246 51.719C322.204 47.8805 313.706 44.446 304.804 41.5166L318.865 14.0914L343.549 31.1627L330.297 51.6685L330.246 51.719ZM302.78 40.9105C294.232 38.2337 285.279 35.9104 276.023 34.0921L287.252 2.87889L314.617 17.7279L302.78 40.86V40.9105ZM280.272 36.9205L276.478 50.0018C271.673 48.9411 266.767 48.032 261.86 47.2744L264.541 33.9911C269.903 34.8497 275.163 35.8093 280.322 36.9205H280.272ZM225.543 43.9914C222.912 43.8904 220.282 43.8399 217.601 43.8399H217.5C217.5 43.8399 217.5 43.8399 217.45 43.8399C215.123 43.8399 212.796 43.8904 210.52 43.9409L210.065 30.4556C212.543 30.3546 215.072 30.3546 217.551 30.3546C220.434 30.3546 223.267 30.3546 226.099 30.4556L225.593 43.9914H225.543ZM174.152 47.1229C169.195 47.8805 164.289 48.7896 159.534 49.7997L155.791 36.7185C160.95 35.6073 166.261 34.5972 171.572 33.8396L174.152 47.1734V47.1229ZM132.271 40.9105L120.384 17.7784L147.799 2.9294L159.028 34.1426C149.772 35.9609 140.869 38.2337 132.321 40.961L132.271 40.9105ZM130.197 41.5671C121.294 44.446 112.797 47.8805 104.754 51.7695L91.502 31.2637L116.186 14.1924L130.247 41.6176L130.197 41.5671ZM102.832 52.6786C97.2177 55.4565 91.8054 58.3859 86.6461 61.6183C84.5723 62.9315 82.549 64.2447 80.5258 65.6084L65.9078 46.5673L86.7473 27.8293L102.782 52.6786H102.832ZM78.8566 66.871C72.2304 71.5682 66.1607 76.7704 60.6473 82.3766L42.6909 66.0629L60.9002 43.5369L78.8566 66.9215V66.871ZM34.3956 125.257C32.2206 132.176 30.8043 139.449 30.1973 147.025L7.13218 141.924L7.23334 116.267L34.3956 125.257ZM30.0961 148.995C29.995 150.914 29.8938 152.935 29.8938 154.904C29.8938 154.955 29.8938 155.056 29.8938 155.157V170.713L6.06997 166.167L3.08567 142.985L30.0961 148.945V148.995ZM29.8938 172.632V193.845L6.22171 189.3L2.68101 167.43L29.9444 172.632H29.8938ZM29.8938 195.764V216.977L6.22171 212.432L2.68101 190.562L29.9444 195.815L29.8938 195.764ZM29.8938 218.897C29.8938 226.119 29.8938 233.139 29.8938 239.806L6.17113 235.463L2.63043 213.644L29.8938 218.897ZM32.0182 258.14H47.4456V271.676H32.0182V258.14ZM402.932 287.131H387.555V273.595H402.932V280.363V287.182V287.131ZM387.555 271.676V258.14H402.932V271.676H387.555Z" fill="#384A9D"/>
<path d="M209.812 128.742L208.446 129.045L154.981 141.116V152.228H209.812V128.742Z" fill="#384A9D"/>
<path d="M280.019 177.026V165.713H225.188V191.168L226.605 190.815L280.019 177.026Z" fill="#384A9D"/>
<path d="M280.019 151.268V141.116L225.188 128.742V152.228H280.019V151.268Z" fill="#384A9D"/>
<path d="M209.812 165.713H154.981V166.673V177.026L209.812 191.219V165.713Z" fill="#384A9D"/>
<path d="M431.105 235.059L435 211.22L433.483 211.523L431.105 211.977L435 188.087L433.483 188.39L431.105 188.845L435 164.955L433.483 165.258L431.207 165.662L434.444 140.459L432.926 140.813L430.043 141.47L429.942 113.59L428.475 114.044L424.833 115.257L418.511 86.6697L417.196 87.3263L413.503 89.2456L398.177 60.6082L397.064 61.6183L393.726 64.6487L373.949 40.1529L373.089 41.3146L370.256 45.0016L347.697 24.6978L346.989 25.809L344.561 29.5465L317.955 11.162L317.399 12.2732L315.476 16.0107L285.987 0L285.583 1.16166L273.898 33.688C255.993 30.2536 237.025 28.4353 217.5 28.4353C197.976 28.4353 179.008 30.2536 161.102 33.688L148.962 0L147.799 0.606082L119.473 16.0107L116.995 11.1115L115.882 11.8691L90.3386 29.496L87.2025 24.6473L86.1909 25.5564L64.6432 44.9006L60.9508 40.0519L60.0403 41.1631L41.1735 64.5477L36.7729 60.5072L36.1153 61.7698L21.4973 89.1445L16.4897 86.5687L16.1862 87.8819L10.1165 115.156L5.05834 113.539V114.903L4.95718 141.419L0.556595 140.459L0.758921 141.823L3.84439 165.662L0.0507812 164.955L0.303688 166.319L3.94555 188.845L0.0507812 188.087L0.303688 189.451L3.94555 211.927L0.0507812 211.169L0.303688 212.533L3.94555 235.008L0.0507812 234.301L5.76648 263.444H6.67695H29.9444V287.99V288.949H31.0572H405.208V280.262C405.208 280.262 405.208 273.797 405.208 263.444H429.386L429.537 262.635L435.101 234.301L431.207 235.008L431.105 235.059ZM427.464 261.575H405.107V241.726L432.319 236.776L427.464 261.575ZM7.53683 261.575L2.68101 236.776L29.8938 241.726V261.575H7.53683ZM44.3601 103.185C40.5159 109.6 37.3799 116.317 35.0025 123.388L12.1903 115.863L18.0072 89.5991L44.3601 103.185ZM23.3688 90.1042L37.4304 63.8911L59.2816 83.7908C54.0211 89.3466 49.3171 95.2559 45.3717 101.519L23.5206 90.3062L23.3688 90.1547V90.1042ZM411.632 90.1042L411.48 90.2557L389.629 101.519C385.683 95.2559 380.979 89.2961 375.769 83.7908L397.671 63.8911L411.682 90.1042H411.632ZM416.993 89.6496L422.81 115.913L399.998 123.439C397.621 116.368 394.485 109.65 390.64 103.286L416.993 89.7001V89.6496ZM32.0182 154.904C32.0182 152.228 32.17 149.601 32.3217 146.975L47.6985 147.985C47.4961 150.308 47.395 152.632 47.395 155.056V161.824H31.9676V155.056C31.9676 155.056 31.9676 154.904 31.9676 154.854L32.0182 154.904ZM292.867 54.1938C288.213 52.8301 283.408 51.5675 278.552 50.4563L282.396 37.375C287.657 38.5872 292.816 39.9004 297.874 41.4156L292.867 54.1938ZM299.897 42.0722C305.057 43.6379 310.115 45.4056 314.971 47.2744L308.648 59.598C304.197 57.8808 299.594 56.3151 294.839 54.8504L299.847 42.0722H299.897ZM316.994 48.0825C322.001 50.0523 326.857 52.2241 331.561 54.5474L323.924 66.2649C319.675 64.1437 315.274 62.2244 310.722 60.4062L317.044 48.0825H316.994ZM333.433 55.4565C338.187 57.8808 342.689 60.4062 347.09 63.1335C347.09 63.184 347.191 63.184 347.242 63.2345L338.137 74.144C334.242 71.6692 330.094 69.3459 325.795 67.1741L333.433 55.4565ZM402.932 154.904V155.207C402.932 157.985 402.932 160.814 402.932 163.794H387.555V155.106C387.555 153.238 387.454 151.369 387.353 149.551L402.729 148.591C402.831 150.662 402.932 152.783 402.932 154.904ZM387.555 225.462V211.977H402.932V225.462H387.555ZM387.555 210.058V196.573H402.932V210.058H387.555ZM387.555 194.653V181.168H402.932V194.653H387.555ZM387.555 179.198V165.713H402.932V179.198H387.555ZM387.201 147.631C386.847 143.086 386.088 138.742 385.076 134.5L400.099 131.57C401.313 136.469 402.173 141.52 402.578 146.722L387.201 147.631ZM384.621 132.681C383.508 128.489 382.143 124.499 380.423 120.61L394.737 115.661C396.761 120.206 398.379 124.903 399.644 129.752L384.621 132.681ZM379.614 118.843C377.793 114.954 375.668 111.166 373.291 107.529L386.543 100.711C389.325 104.953 391.804 109.347 393.928 113.893L379.614 118.843ZM372.178 105.913C369.7 102.327 367.019 98.8418 363.933 95.5084L375.921 87.0232C379.411 90.8618 382.547 94.8518 385.43 99.0439L372.178 105.913ZM362.618 94.0437C359.533 90.8113 356.245 87.7303 352.654 84.801L363.225 74.9521C367.272 78.3361 371.065 81.8716 374.556 85.6091L362.618 94.0942V94.0437ZM351.136 83.4878C347.596 80.6594 343.853 77.932 339.907 75.3057L348.961 64.3962C353.412 67.2751 357.661 70.3055 361.657 73.5884L351.136 83.4373V83.4878ZM385.38 155.106C385.38 193.946 385.38 250.312 385.38 271.676H241.223C241.071 267.131 240.97 260.11 240.97 256.171C240.97 253.595 241.274 238.493 243.145 234.806C246.079 228.695 253.211 223.947 260.849 220.412L294.738 229.149L300.302 212.533L288.82 209.603C289.579 209.199 290.439 208.896 291.197 208.492C298.026 205.007 304.146 201.623 308.749 196.775C310.722 194.704 312.593 192.027 315.426 187.734C319.321 181.825 319.928 173.137 320.282 168.895C320.585 164.905 320.939 160.915 320.939 156.925C320.939 155.359 320.939 153.844 320.737 152.278C319.877 142.076 318.612 131.015 310.418 122.429C306.119 117.883 300.757 114.347 295.092 111.469L321.9 105.458L317.095 88.892H316.235H316.083L268.638 99.5994C265.553 97.9832 262.669 96.2155 259.584 94.4983C253.969 91.4173 243.651 83.3363 238.643 74.3965C235.406 68.6893 233.737 62.881 233.282 56.6181C233.13 54.2948 232.978 49.7492 232.978 46.2137C273.443 48.335 309.963 58.7899 336.771 75.7602C367.069 94.9023 385.228 121.469 385.329 155.157L385.38 155.106ZM190.237 200.209L139.605 187.077V130.56L182.447 120.913V119.095L115.73 104.044L119.575 90.9123L209.862 111.216V75.0531H225.239V111.216L315.578 90.9123L319.422 104.044L252.654 119.095V120.913L295.446 130.56V187.077L244.865 200.159L297.672 213.795L293.322 226.725L225.239 209.149V235.008H209.862V209.149L141.78 226.725L137.43 213.745L190.287 200.108L190.237 200.209ZM201.668 56.5676C201.213 62.881 199.544 68.6388 196.307 74.346C191.249 83.2352 180.98 91.3163 175.366 94.4478C172.28 96.165 169.347 97.9327 166.312 99.5489L117.956 88.6395L113.05 105.408L139.858 111.418C134.142 114.297 128.831 117.832 124.532 122.378C116.337 130.964 115.073 142.025 114.213 152.228C114.061 153.743 114.011 155.308 114.011 156.874C114.011 160.864 114.365 164.854 114.719 168.844C115.073 173.087 115.68 181.774 119.575 187.683C122.458 192.027 124.279 194.653 126.302 196.724C130.905 201.573 137.025 204.957 143.854 208.442C144.612 208.846 145.422 209.199 146.231 209.553L134.749 212.482L140.313 229.099L174.203 220.361C181.84 223.897 188.972 228.644 191.906 234.756C193.778 238.443 194.081 253.544 194.081 256.12C194.081 260.06 193.98 267.131 193.828 271.626H49.6206C49.6206 250.564 49.6206 195.512 49.6206 155.056C49.7217 121.368 67.8804 94.8518 98.1787 75.6592C125.037 58.7394 161.557 48.234 202.022 46.1127C202.022 49.6482 201.871 54.1938 201.719 56.5171L201.668 56.5676ZM143.095 53.9413L138.138 41.1631C143.196 39.6479 148.406 38.3852 153.667 37.173L157.41 50.3048C152.503 51.4159 147.748 52.6281 143.095 53.9918V53.9413ZM141.021 54.5474C136.266 56.0121 131.664 57.5778 127.162 59.2445L120.991 46.8703C125.897 45.0016 130.955 43.2843 136.115 41.7186L141.072 54.4969L141.021 54.5474ZM125.24 60.0526C120.637 61.8709 116.236 63.7901 111.987 65.8609L104.4 54.0928C109.104 51.7695 113.96 49.6482 119.018 47.6784L125.24 60.0526ZM110.116 66.77C105.766 68.9418 101.618 71.2146 97.7235 73.6389L88.72 62.679C93.1206 59.9516 97.7741 57.3758 102.579 54.9514L110.166 66.7195L110.116 66.77ZM95.9025 74.7501C91.9066 77.3259 88.1636 80.0028 84.5723 82.8312L74.102 72.8813C78.1485 69.6489 82.3973 66.6185 86.8991 63.7396L95.9025 74.6996V74.7501ZM83.0043 84.1949C79.413 87.1243 76.1252 90.2052 72.9892 93.3871L61.1025 84.801C64.6432 81.0634 68.4368 77.528 72.5339 74.1945L83.0043 84.1444V84.1949ZM59.7368 86.2656L71.6235 94.8518C68.5886 98.1348 65.8066 101.62 63.2775 105.155L50.1264 98.2358C53.0095 94.0942 56.2467 90.0537 59.7874 86.2656H59.7368ZM49.0136 99.852L62.2153 106.822C59.7874 110.408 57.6124 114.196 55.7915 118.085L41.5275 113.034C43.7025 108.489 46.2316 104.145 49.0136 99.9025V99.852ZM54.881 119.802C53.1613 123.641 51.745 127.681 50.5816 131.772L35.5589 128.742C36.874 123.944 38.5432 119.247 40.6171 114.701L54.881 119.802ZM35.1037 130.611L50.1264 133.641C49.1147 137.682 48.356 141.874 47.9514 146.116L32.5746 145.056C33.0804 140.106 33.9403 135.257 35.1543 130.56L35.1037 130.611ZM47.4456 163.743V179.198H32.0182V163.743H47.4456ZM47.4456 181.117V194.603H32.0182V181.117H47.4456ZM47.4456 196.522V210.007H32.0182V196.522H47.4456ZM47.4456 211.927V225.412H32.0182V211.927H47.4456ZM47.4456 227.331V240.817H32.0182V227.331H47.4456ZM47.4456 242.736V256.272H32.0182V242.736H47.4456ZM387.555 242.736H402.932V256.272H387.555V242.736ZM387.555 240.867V227.382H402.932V240.867H387.555ZM259.685 46.9208C254.779 46.2137 249.822 45.6077 244.814 45.1026L246.382 31.6678C251.744 32.1728 257.105 32.8294 262.315 33.587L259.635 46.8703L259.685 46.9208ZM242.69 44.9511C237.783 44.547 232.725 44.244 227.667 44.042L228.173 30.5061C233.585 30.7081 238.947 31.0112 244.207 31.4657L242.639 44.9006L242.69 44.9511ZM208.345 43.9914C203.287 44.1935 198.279 44.4965 193.322 44.8501L191.805 31.4152C197.116 30.9607 202.427 30.6576 207.839 30.5061L208.294 43.9914H208.345ZM191.147 45.0016C186.089 45.4561 181.183 46.0622 176.276 46.7693L173.697 33.4355C178.957 32.6779 184.268 32.0213 189.68 31.5668L191.198 45.0016H191.147ZM32.0182 273.595H47.4456V287.131H32.0182V273.595ZM49.6206 273.545H65.1996V287.081H49.6206V273.545ZM67.3746 273.545H83.0043V287.081H67.3746V273.545ZM85.1793 273.545H100.809V287.081H85.1793V273.545ZM102.984 273.545H118.614V287.081H102.984V273.545ZM120.738 273.545H136.368V287.081H120.738V273.545ZM138.543 273.545H154.172V287.081H138.543V273.545ZM156.347 273.545H171.977V287.081H156.347V273.545ZM174.101 273.545H189.731V287.081H174.101V273.545ZM191.906 273.545H207.536V287.081H191.906V273.545ZM209.711 273.545H225.29V287.081H209.711V273.545ZM227.465 273.545H243.094V287.081H227.465V273.545ZM245.269 273.545H260.899V287.081H245.269V273.545ZM263.074 273.545H278.704V287.081H263.074V273.545ZM280.828 273.545H296.458V287.081H280.828V273.545ZM298.633 273.545H314.262V287.081H298.633V273.545ZM316.438 273.545H332.017V287.081H316.438V273.545ZM334.192 273.545H349.821V287.081H334.192V273.545ZM351.996 273.545H367.626V287.081H351.996V273.545ZM369.75 273.545H385.38V287.081H369.75V273.545ZM405.107 239.806V218.897L432.37 213.644L428.829 235.463L405.107 239.806ZM405.107 216.977V195.764L432.37 190.512L428.829 212.381L405.107 216.927V216.977ZM405.107 193.845V172.632L432.37 167.43L428.829 189.3L405.107 193.845ZM405.107 170.713V155.106C405.107 155.106 405.107 154.955 405.107 154.904C405.107 152.884 405.006 150.914 404.854 148.995L431.864 143.035L428.88 166.218L405.056 170.764L405.107 170.713ZM404.803 147.025C404.196 139.5 402.78 132.227 400.605 125.257L427.767 116.267L427.868 141.924L404.803 147.025ZM374.303 82.3766C368.84 76.7704 362.719 71.6187 356.093 66.871L374.05 43.4864L392.259 66.0124L374.303 82.3766ZM354.424 65.6084C352.451 64.2447 350.378 62.881 348.304 61.6183C343.195 58.3859 337.783 55.4565 332.168 52.6786L348.203 27.8293L369.042 46.5673L354.424 65.6084ZM330.246 51.719C322.204 47.8805 313.706 44.446 304.804 41.5166L318.865 14.0914L343.549 31.1627L330.297 51.6685L330.246 51.719ZM302.78 40.9105C294.232 38.2337 285.279 35.9104 276.023 34.0921L287.252 2.87889L314.617 17.7279L302.78 40.86V40.9105ZM280.272 36.9205L276.478 50.0018C271.673 48.9411 266.767 48.032 261.86 47.2744L264.541 33.9911C269.903 34.8497 275.163 35.8093 280.322 36.9205H280.272ZM225.543 43.9914C222.912 43.8904 220.282 43.8399 217.601 43.8399H217.5C217.5 43.8399 217.5 43.8399 217.45 43.8399C215.123 43.8399 212.796 43.8904 210.52 43.9409L210.065 30.4556C212.543 30.3546 215.072 30.3546 217.551 30.3546C220.434 30.3546 223.267 30.3546 226.099 30.4556L225.593 43.9914H225.543ZM174.152 47.1229C169.195 47.8805 164.289 48.7896 159.534 49.7997L155.791 36.7185C160.95 35.6073 166.261 34.5972 171.572 33.8396L174.152 47.1734V47.1229ZM132.271 40.9105L120.384 17.7784L147.799 2.9294L159.028 34.1426C149.772 35.9609 140.869 38.2337 132.321 40.961L132.271 40.9105ZM130.197 41.5671C121.294 44.446 112.797 47.8805 104.754 51.7695L91.502 31.2637L116.186 14.1924L130.247 41.6176L130.197 41.5671ZM102.832 52.6786C97.2177 55.4565 91.8054 58.3859 86.6461 61.6183C84.5723 62.9315 82.549 64.2447 80.5258 65.6084L65.9078 46.5673L86.7473 27.8293L102.782 52.6786H102.832ZM78.8566 66.871C72.2304 71.5682 66.1607 76.7704 60.6473 82.3766L42.6909 66.0629L60.9002 43.5369L78.8566 66.9215V66.871ZM34.3956 125.257C32.2206 132.176 30.8043 139.449 30.1973 147.025L7.13218 141.924L7.23334 116.267L34.3956 125.257ZM30.0961 148.995C29.995 150.914 29.8938 152.935 29.8938 154.904C29.8938 154.955 29.8938 155.056 29.8938 155.157V170.713L6.06997 166.167L3.08567 142.985L30.0961 148.945V148.995ZM29.8938 172.632V193.845L6.22171 189.3L2.68101 167.43L29.9444 172.632H29.8938ZM29.8938 195.764V216.977L6.22171 212.432L2.68101 190.562L29.9444 195.815L29.8938 195.764ZM29.8938 218.897C29.8938 226.119 29.8938 233.139 29.8938 239.806L6.17113 235.463L2.63043 213.644L29.8938 218.897ZM32.0182 258.14H47.4456V271.676H32.0182V258.14ZM402.932 287.131H387.555V273.595H402.932V280.363V287.182V287.131ZM387.555 271.676V258.14H402.932V271.676H387.555Z" fill="#0B0E0F"/>
<path d="M209.812 128.742L208.446 129.045L154.981 141.116V152.228H209.812V128.742Z" fill="#0B0E0F"/>
<path d="M280.019 177.026V165.713H225.188V191.168L226.605 190.815L280.019 177.026Z" fill="#0B0E0F"/>
<path d="M280.019 151.268V141.116L225.188 128.742V152.228H280.019V151.268Z" fill="#0B0E0F"/>
<path d="M209.812 165.713H154.981V166.673V177.026L209.812 191.219V165.713Z" fill="#0B0E0F"/>
</g>
<defs>
<clipPath id="clip0_18_364">
<rect width="435" height="289" fill="white"/>
</clipPath>
</defs>
</svg>
